<?xml version="1.0" encoding="iso-8859-1"?>
<!-- Generator: Adobe Illustrator 19.0.0, SVG Export Plug-In . SVG Version: 6.00 Build 0)  -->
<svg version="1.1" id="Layer_1" xmlns="http://www.w3.org/2000/svg" xmlns:xlink="http://www.w3.org/1999/xlink" x="0px" y="0px"
	 viewBox="0 0 502 502" style="enable-background:new 0 0 502 502;" xml:space="preserve">
<g>
	<g>
		<rect x="10" y="166.307" style="fill:#C75924;" width="160.667" height="274.005"/>
		<rect x="170.667" y="61.687" style="fill:#E1B246;" width="160.667" height="378.625"/>
		<rect x="331.333" y="224.845" style="fill:#C75924;" width="160.667" height="215.468"/>
	</g>
	<g>
		<path d="M492,214.845H341.333V61.688c0-5.523-4.478-10-10-10H170.667c-5.522,0-10,4.477-10,10v94.62H10c-5.522,0-10,4.477-10,10
			v274.005c0,5.523,4.478,10,10,10h160.667h160.666H492c5.522,0,10-4.477,10-10V224.845C502,219.322,497.522,214.845,492,214.845z
			 M20,176.308h140.667v254.005H20V176.308z M180.667,166.308v-94.62h140.666v153.157v205.468H180.667V166.308z M482,430.313
			H341.333V234.845H482V430.313z"/>
		<path d="M254.972,202.426c-1.816,0-3.373,0.519-4.669,1.556l-12.97,12.711c-6.042,6.042,3.298,15.382,9.339,9.338l1.686-1.621
			v61.802c0,8.545,13.23,8.546,13.23,0v-77.172C261.198,205.02,258.993,202.815,254.972,202.426
			C253.156,202.426,258.993,202.815,254.972,202.426C253.156,202.426,258.993,202.815,254.972,202.426z"/>
		<path d="M93.111,314.229c6.291-3.242,12.277-7.717,17.963-13.424c5.685-5.707,8.527-12.581,8.527-20.623
			c0-8.084-2.843-14.969-8.527-20.655C105.389,253.843,98.504,251,90.42,251c-8.041,0-14.915,2.843-20.622,8.527
			c-5.707,5.686-8.56,12.571-8.56,20.655c0,8.383,12.969,8.409,12.969,0c0-4.496,1.59-8.322,4.767-11.478
			c3.178-3.156,6.994-4.734,11.447-4.734c4.497,0,8.322,1.579,11.478,4.734c3.156,3.156,4.735,6.982,4.735,11.478
			c0,4.453-1.579,8.268-4.735,11.447c-3.156,3.177-7.879,6.387-14.17,9.63s-12.278,7.717-17.963,13.424s-8.527,12.581-8.527,20.622
			c0,1.773,0.626,3.297,1.88,4.572c1.254,1.276,2.789,1.913,4.605,1.913h45.394c8.372,0,8.373-12.97,0-12.97H75.504
			c0.778-1.816,1.923-3.48,3.437-4.994C82.097,320.671,86.821,317.471,93.111,314.229C99.402,310.987,86.821,317.471,93.111,314.229
			C99.402,310.987,86.821,317.471,93.111,314.229z"/>
		<path d="M388.404,365.821c0.086,0.087,0.173,0.151,0.259,0.194c6.313,6.356,13.943,9.533,22.893,9.533
			c8.949,0,16.59-3.167,22.925-9.5c6.333-6.333,9.5-13.975,9.5-22.925s-3.156-16.602-9.469-22.957
			c-2.119-2.075-4.366-3.804-6.744-5.188c2.161-3.155,3.243-6.744,3.243-10.765c0-5.404-1.902-9.997-5.707-13.781
			c-3.805-3.783-8.388-5.674-13.748-5.674c-5.405,0-9.987,1.88-13.749,5.642c-2.7,2.7-3.508,6.809-0.584,9.76
			c3.545,3.577,6.41,1.164,9.792-0.552c1.254-1.253,2.767-1.88,4.54-1.88c1.816,0,3.35,0.627,4.604,1.88
			c1.254,1.255,1.88,2.789,1.88,4.605c0,1.773-0.626,3.297-1.88,4.572s-2.788,1.913-4.604,1.913c-8.387,0-8.367,12.97,0,12.97
			c5.36,0,9.943,1.891,13.748,5.674c3.804,3.784,5.707,8.377,5.707,13.781c0,5.361-1.902,9.944-5.707,13.748
			c-3.805,3.805-8.388,5.707-13.748,5.707c-5.405,0-9.987-1.902-13.749-5.707C391.444,350.702,381.722,359.138,388.404,365.821
			C388.49,365.907,388.274,365.69,388.404,365.821C388.49,365.907,388.274,365.69,388.404,365.821
			C388.49,365.907,388.274,365.69,388.404,365.821z"/>
		<path d="M258,86h-52c-5.522,0-10,4.477-10,10s4.478,10,10,10h52c5.522,0,10-4.477,10-10S263.522,86,258,86z"/>
		<path d="M300,86h-8c-5.522,0-10,4.477-10,10s4.478,10,10,10h8c5.522,0,10-4.477,10-10S305.522,86,300,86z"/>
	</g>
</g>
<g>
</g>
<g>
</g>
<g>
</g>
<g>
</g>
<g>
</g>
<g>
</g>
<g>
</g>
<g>
</g>
<g>
</g>
<g>
</g>
<g>
</g>
<g>
</g>
<g>
</g>
<g>
</g>
<g>
</g>
</svg>
